<svg id="Layer_1" data-name="Layer 1" xmlns="http://www.w3.org/2000/svg" viewBox="0 0 101.7 46">
  <defs>
    <style>
      .cls-1 {
        fill: #545454;
      }
    </style>
  </defs>
  <title>logo</title>
  <path class="cls-1" d="M85.3,337.3h-.4c-1.6,0-2.5-1.9-2.8-5.7v-2a52.9,52.9,0,0,1,.5-5.6h-.1q-6,3.6-9,3.6h-.3c-1.4-.2-2.1-.9-2.1-2.2s1-3.3,3-5a8.6,8.6,0,0,1,5.8-2.7h.9a11.3,11.3,0,0,1,3.2.9,95.4,95.4,0,0,1,4.2-12.5l2.3-4.4a23.9,23.9,0,0,1,6.1-8.5c1.8-1.3,3.3-2,4.4-2h.7a2.2,2.2,0,0,1,1.9,2.5v.2q0,3-4.5,8.1c-2.8,2.7-5.4,4.5-8,5.3a102.6,102.6,0,0,0-4.6,13.4h.4c8.8-9.2,16.6-13.8,23.3-14l.2.3c-7,.4-14.7,5.2-23.3,14.2h0a12.5,12.5,0,0,1,2.4,7.6v.5a13.6,13.6,0,0,1-1.5,5.9C87.1,336.6,86.2,337.3,85.3,337.3ZM73.4,327.1c1.8,0,5-1.3,9.3-3.9l.9-4a6.6,6.6,0,0,0-3.4-1h-.5a7.5,7.5,0,0,0-5.4,2.5c-1.7,1.8-2.5,3.2-2.5,4.4v.6C71.7,326.4,72.3,326.9,73.4,327.1Zm12.2,9.5c1.6-.3,2.7-2.7,3.1-7.3v-.5a10.7,10.7,0,0,0-2.3-7c-.4.5-1,3-1.9,7.4l-.2,3C84.4,335.1,84.8,336.5,85.6,336.6Zm6-29.9a21.1,21.1,0,0,0,10-9.2,11.6,11.6,0,0,0,1-2.9v-.7c-.1-1.2-.6-1.8-1.4-1.8s-3.1,2.1-5.2,5.1C93,302.5,91.6,305.6,91.6,306.7Zm5.4,4.7a1.4,1.4,0,0,1,.2.7v.2c-.1.1-.1.1-.1.2s0,.2.1.2v.5a.3.3,0,0,1-.1.2.3.3,0,0,0,.1.2v.6h.1v.2c0,.1,0,.1-.1.2a.4.4,0,0,0,.1.3v.9c0,.2-.1.4-.1.6v.2a.3.3,0,0,0,.1.2h0c0,.1-.1.1-.1.2h.1c0,.3-.1.6-.1.8s-.1.4-.1.7a.4.4,0,0,0,.1.3v.2a.5.5,0,0,0,0,.6v.7c.1.1.1.2.1.4a.7.7,0,0,1-.1.5v.6a.4.4,0,0,1,.1.3h0c0,.2.1.3.3.4H102v.2h.2v.2h0a.4.4,0,0,0,.1.3c0,.1-.1.2-.1.3v.5a.3.3,0,0,1,.1.2c0,.1,0,.2-.1.2v.5c.1,0,.1.1.1.2a.3.3,0,0,1-.1.2h0a.4.4,0,0,1-.1.3l-.4.2h-5a.1.1,0,0,1-.1-.1H93.1c-.3-.1-.4-.3-.4-.4a.8.8,0,0,1-.1-.4c0-.1,0-.2.1-.2v-.5c-.1,0-.1-.1-.1-.2a.1.1,0,0,1,.1-.1v-2.2c-.1-.1-.1-.1-.1-.2a.4.4,0,0,1,.1-.3V322h0v-.7h0a.4.4,0,0,0,.1-.3v-1a.7.7,0,0,1-.1-.5v-1.3c-.1,0-.1-.2-.1-.3a.4.4,0,0,1,.1-.3v-.4c-.1,0-.1-.1-.1-.2v-.3c0-.2.1-.3.1-.4v-.7c0-.1-.1-.2-.1-.3s.1-.2.1-.3v-1.4c-.1-.1-.1-.2-.1-.4s.1-.2.1-.3v-.5h0v-.2a.4.4,0,0,1,.1-.3l.3-.2h3.2a.1.1,0,0,0,.1-.1h.4Zm-2.6,6.7h0Zm0,3.9h-.3c0,.1.1.1.2.1S94.4,322.1,94.4,322Zm.1-.8h-.1A.1.1,0,0,0,94.5,321.2Zm-.1-2.2h-.1a.1.1,0,0,0-.1.1h.2Zm1.2,3.2h-.2C95.5,322.3,95.6,322.3,95.6,322.2Zm.1,1.5h-.6c0,.1-.1.1-.1.2h.7Zm1.2.7h-1v.2a.1.1,0,0,1,.1.1.1.1,0,0,0,.1-.1h.8C96.9,324.6,96.9,324.5,96.9,324.4Zm-.9-8.9Zm2.1,9.8h0Zm.1-1.2Zm13-13.3h1.2c.1,0,.2,0,.2.1s.2,0,.2.1h.4l.6.2.5.2h.3c0,.1.1.1.1.2h.3l.4.3.3.2a.2.2,0,0,1,.2.2h.3l.2.2.2.3h.3l.3.5a1.2,1.2,0,0,0,.5.5c0,.1.1.2.1.3a.4.4,0,0,0,.1.3l.3.4a.8.8,0,0,1,.2.5v.4c.1.1.2.2.2.3h0c0,.1.1.2.1.4a.4.4,0,0,1,.1.3v.2c0,.1.1.2.1.3h-.1c0,.1.1.2.1.3s.1.1.1.2v.3c-.1.1-.1.1-.1.2s0,.1.1.2v.2c0,.1-.1.2-.1.3a.6.6,0,0,1-.1.4v.5c-.1,0-.1.1-.1.2h0a.5.5,0,0,1-.2.4c-.1.1-.1.2-.1.4h0l-.2.3v.3l-.5.6a1.6,1.6,0,0,1-.4.7.3.3,0,0,1-.1.2l-.2.2-.3.3-.2.2-.5.5-.4.2-.3.2-.3.3-.5.3-.7.3h-.6l-.7.2h-3.7l-1.3-.4-1.1-.5-.4-.3-.5-.4-.3-.2q-.1,0-.3-.3l-.3-.2-.3-.3-.4-.5-.3-.5a.3.3,0,0,1-.1-.2c-.1,0-.1-.1-.1-.2s-.1-.1-.1-.2l-.2-.2a.1.1,0,0,0-.1-.1h0c0-.2,0-.3-.1-.4a.4.4,0,0,1-.1-.3h0a.8.8,0,0,1-.2-.4,1.3,1.3,0,0,1-.1-.6.8.8,0,0,1-.2-.5V319a.4.4,0,0,1-.1-.3c0-.3.1-.5.1-.8a1.9,1.9,0,0,0,.1-.8l.3-.8.3-.7a.8.8,0,0,1,.2-.4c.1-.1.1-.3.2-.4a.4.4,0,0,0,.1-.3l.2-.2a1.8,1.8,0,0,0,.5-.7l.6-.6h.2c.2-.1.2-.2.2-.2l.6-.5a.9.9,0,0,1,.6-.3l.3-.2.3-.2h.4l.3-.2h.4l.3-.2h2.7Zm-7.6,6.5h0Zm1.8.8H105c0,.1,0,.1.1.1h.3Zm0,.9a.1.1,0,0,0-.1-.1H105a.1.1,0,0,0,.1.1h.3Zm.1,2.2h-.4a.1.1,0,0,1,.1.1h.2A.1.1,0,0,0,105.5,321.2Zm-.2.8h0c-.1,0-.1,0-.1-.1s0,.1-.1.1h.3A.1.1,0,0,0,105.3,322Zm1.1.3a.1.1,0,0,0-.1-.1c-.1,0-.2,0-.2.1h.3Zm.3-7.7c0-.1,0-.1-.1-.1h-.2c0,.1,0,.1.1.1h.2Zm0-.9h-.1C106.7,313.8,106.7,313.8,106.7,313.7Zm.4,1.8H107c-.1,0-.2,0-.2.1a.1.1,0,0,0,.1.1h.2Zm3.7-.7h-1.2l-.5.2a.5.5,0,0,1-.4.2l-.4.5-.4.3-.3.5a1.6,1.6,0,0,0-.3.6c-.1.2-.1.4-.2.6a1.7,1.7,0,0,0-.1.7v.2c0,.1.1.1.1.2s-.1.1-.1.2v.7a.9.9,0,0,1,.1.5v.2a.4.4,0,0,1,.1.3h0a.1.1,0,0,1,.1.1v.5h.2l.3.3.3.2a.7.7,0,0,0,.4.5l.7.3,1,.3h.5l.4-.2h.6l.6-.3c.2,0,.3-.2.5-.4s.2-.2.3-.3l.2-.2.2-.2h0l.2-.3a.8.8,0,0,0,.2-.4v-.3c.1-.1.1-.2.1-.4h0a.3.3,0,0,1,.1-.2.4.4,0,0,0,.1-.3v-.3a.4.4,0,0,1-.1-.3.3.3,0,0,1,.1-.2v-.2a3.1,3.1,0,0,0-.2-.8,9.4,9.4,0,0,0-.3-.9l-.3-.5-.3-.5a.5.5,0,0,0-.5-.3c-.1-.1-.1-.2-.2-.2h-.2a.1.1,0,0,0-.1-.1c-.1-.1-.2-.1-.2-.2l-.4-.2h-1Zm-2.1-1.4h-.4c0,.1,0,.1.1.1h.2a.1.1,0,0,1,.1-.1Zm.4,11.9h0Zm.9-11.9h0Zm1.7,0h-.4c0,.1,0,.1.1.1Zm.7,11.9h0Zm.6-11.8c0-.1-.1-.1-.1-.2h-.4c0,.1.1.1.1.2h.4Zm1.2,11.1Zm.1-9.1Zm.3-1.8h-.1c.1,0,.1,0,.1-.1Zm.3.8h-.3c-.1,0-.1,0-.1.1h.4Zm.3,7.8s0-.1-.1,0h.1Zm1-1.1h-.4c0,.1,0,.1.1.1Zm-.1-2.3h-.3c0,.1.1.1.2.1h.1Zm.1,3.1c0-.1,0-.1-.1-.1a.1.1,0,0,0-.1.1h-.2a.1.1,0,0,0,.1.1h.2a.1.1,0,0,0,.1-.1Zm0-3.9h-.3v.2h.1a.1.1,0,0,0,.1-.1Zm1.7-.8h0Zm16.5-5.4c0,.1-.1.2-.1.4l-.2.3h0c0,.2,0,.3-.1.4s-.2.2-.2.4,0,.2-.1.2l-.2.2h0a.4.4,0,0,1-.1.3c0,.1-.1.2-.1.3a.5.5,0,0,1-.2.4l-.2.4a.7.7,0,0,1-.2.6l-.3.6v.2a.6.6,0,0,1-.2.5.8.8,0,0,0-.2.5.4.4,0,0,1-.1.3l-.2.2a.6.6,0,0,1-.1.4c0,.2,0,.3-.2.3s-.1.3-.1.4a.5.5,0,0,1-.2.4.8.8,0,0,1-.2.4c0,.1-.1.3-.1.4s-.1.3-.2.3-.1.2-.1.3v.2h0c0,.2-.1.3-.3.5l-.2.4a4.2,4.2,0,0,1-.2.6,1.3,1.3,0,0,0-.3.5c0,.2,0,.3-.1.4a.5.5,0,0,0-.2.4c0,.1,0,.2-.1.2s-.1.1-.1.2v.2c0,.1,0,.1-.1.2h-.1a.1.1,0,0,0-.1.1v.4c0,.1-.1.2-.2.3a.9.9,0,0,1-.3.5l-.4.3h-1.7c0-.1-.1-.1-.3-.1h-1l-.3-.3-.3-.8a2,2,0,0,1-.4-.8c0-.1-.1-.2-.1-.3s0-.3-.2-.4v-.2a.4.4,0,0,0-.1-.3,3.6,3.6,0,0,0-.4-.9l-.3-.8-.2-.3v-.2h0l-.3-.6-.3-.6h0c0-.2,0-.3-.1-.4s-.1-.2-.1-.3l-.2-.3c-.1,0-.1-.1-.1-.2a.4.4,0,0,0-.1-.3c0-.1-.1-.2-.1-.3a.8.8,0,0,0-.2-.4.5.5,0,0,1-.2-.4h0a.8.8,0,0,1-.2-.4.8.8,0,0,0-.2-.5l-.3-.5c0-.2-.1-.4-.1-.6l-.2-.3-.2-.4a.8.8,0,0,0-.2-.5c-.1-.2-.2-.3-.2-.5l-.3-.6a.8.8,0,0,1-.2-.5c0-.2-.1-.3-.1-.4a.4.4,0,0,1-.1-.3v-.2a.3.3,0,0,0,.1-.2h4c.1,0,.2,0,.3.2l.4.4h0a.7.7,0,0,0,.1.5.8.8,0,0,1,.2.5,1.4,1.4,0,0,1,.2.6,6.4,6.4,0,0,1,.2.7v.2a.4.4,0,0,1,.1.3l.2.3c0,.1.1.3.1.4v.2a.5.5,0,0,0,.2.4c.1.1.1.2.1.4h0a4917165483570.2,4917165483570.2,0,0,1,.4.8,1.3,1.3,0,0,0,.1.6c0,.2,0,.3.2.4a.4.4,0,0,0,.1.3v.2a.8.8,0,0,0,.2.5.4.4,0,0,1,.1.3v.2c0,.1.1.1.1.2h-.6a.1.1,0,0,0,.1.1h.6l.3-.2.3-.6.3-.7v-.4h0a.4.4,0,0,1,.1-.3.3.3,0,0,0,.1-.2.7.7,0,0,1,.1-.5.5.5,0,0,0,.2-.4h0a.4.4,0,0,1,.1-.3.6.6,0,0,0,.1-.4c0-.1.1-.2.1-.3s0-.2.1-.2a.4.4,0,0,1,.1-.3c0-.1,0-.1.1-.1v-.2h.1v-.2h.1c0-.1.1-.2,0-.4s0-.2.1-.2.2-.2.2-.3v-.3a.8.8,0,0,1,.2-.4c0-.1.1-.2.1-.4a.4.4,0,0,0,.1-.3c0-.2.1-.3.1-.4a.5.5,0,0,0,.2-.4c0-.2.1-.3.3-.4h4.4l.2.2v.4Zm-12.8,2.7h-.2a.1.1,0,0,0,.1.1Zm1,1.2a.1.1,0,0,0-.1-.1h.1Zm.7,1.5h0Zm.4-1.4h-.1a.1.1,0,0,0,.1.1Zm1.4,5.8h0Zm.9-.6h-.5a.1.1,0,0,1-.1.1h.6Zm-.6,1.1Zm1.3-.2c-.2,0-.3-.1-.3-.2a.5.5,0,0,0-.4-.2h-.2v.2h1.6c0-.1,0-.2-.2-.2Zm-.2,1.1H126l-.2.2h.1A.6.6,0,0,0,126.5,323.1Zm.4-1.8h-.3a.1.1,0,0,1-.1-.1h0a.1.1,0,0,0,.1.1h.6c.1,0,.1,0,.1-.1a.1.1,0,0,0-.1-.1Zm.3,2.2H127l-.5.2h.7Zm.1-2.7a.2.2,0,0,0-.2-.2h-.5a.3.3,0,0,0,.1.2h.6Zm-.2,3.7Zm.2-1.7Zm.8-2.4h0Zm.9-.7h-.5c-.1.1-.2.1-.1.1h.4c.1-.1.2-.1.2-.2Zm-.4-1.6h0c0-.1,0-.1-.1-.1h-.1a.1.1,0,0,0,.1.1h.1Zm.9.4h-.1c0,.1,0,.1.1.1Zm1-.3h-.3a.1.1,0,0,0-.1.1h.3c0-.1.1-.1.1-.2Zm.4-1.3h0Zm.2-1.3h0Zm6-4.5h8.2a.7.7,0,0,1,.4.5v.7h.1v2l-.2.2-.4.2h-3.8l-.6.2a.8.8,0,0,0-.2.6v.4a.4.4,0,0,1-.1.3c.1.1.1.1.1.2h0c0,.2,0,.3.1.4h4.6l.2.3v.3c0,.1-.1.2-.1.3s.1.2.1.3v.6a.4.4,0,0,1-.1.3c.1,0,.1.1.1.2v.2a1.1,1.1,0,0,1-.1.5.5.5,0,0,1-.2.4h-4.2l-.4.2c-.1,0-.1.1-.1.2h0c0,.1,0,.1-.1.2v.2h0c.1.1.1.1.1.2v.4a.5.5,0,0,0,.2.4l.4.2h4.3a.5.5,0,0,1,.4.3,1.7,1.7,0,0,1,.2.5v.5h0v.9h0v.8c0,.1,0,.2-.1.2s-.1.2-.2.2l-.3.2h-2.3a.1.1,0,0,1-.1-.1h-6.5l-.2-.2h0c-.1,0-.1-.1-.1-.3v-2.3c-.1,0-.1-.1-.1-.2v-.8h0v-.3a.4.4,0,0,1-.1-.3c0-.2.1-.3.1-.4v-.7h0v-.2h0v-.4c-.1-.1-.1-.1-.1-.2v-.2a.6.6,0,0,1,.1-.4v-1c-.1-.1-.1-.1-.1-.2s0-.2.1-.2v-.2c0-.1,0-.1.1-.2v-.2h-.1v-.3c.1,0,.1-.1.1-.2h0a.4.4,0,0,1-.1-.3c0-.1,0-.1.1-.2v-.4a.3.3,0,0,1-.1-.2.4.4,0,0,1,.1-.3c-.1,0-.1-.1-.1-.2h0v-.2a.3.3,0,0,1-.1-.2v-.8a.6.6,0,0,1-.1-.4v-1.1a.3.3,0,0,1-.1-.2.9.9,0,0,1,.3-.6l.6-.3h.4Zm.5,8.8h0Zm-.2,1.5h0Zm.9,2h-.5a.2.2,0,0,1,.2.2h.3Zm-.4.8h-.2a.1.1,0,0,1,.1-.1Zm1.2-2.1h-1.2a.1.1,0,0,0-.1.1.2.2,0,0,0,.2.2h.9Zm-.8-8.8-.3-.2h.3Zm.1,5.3Zm0-1.7h-.2c0,.1,0,.1.1.1S138.4,317,138.4,316.9Zm1.1,2h-.8l-.2.2c0,.1,0,.1.1.1h.3l.3-.2Zm-.2,1.8h0Zm-.2,2.3h0Zm.1-8.2h-.5c-.1,0-.1,0-.1.1h.6Zm-.4,1.6h-.2c0,.1,0,.1.1.1Zm.1,8.2h-.2a.1.1,0,0,0-.1.1h.3Zm.1-11.2h-.3a.1.1,0,0,1,.1.1h.2Zm0,10.4h-.1a.1.1,0,0,0-.1.1h.2Zm0-6.7a.1.1,0,0,1-.1-.1h.1Zm0,1.2c0-.1-.1-.1-.2-.1h0a.1.1,0,0,0,.1.1c.1,0,.1,0,.1-.1h0Zm1.1,2.7h-.3c0,.1-.1.1-.2.2h-.3c.1,0,.1,0,.1-.1l.3-.2Zm-.6-3.3h-.4v.2a.1.1,0,0,0,.1.1h.2C139.5,317.9,139.5,317.8,139.5,317.7Zm.4,6.6c0-.1,0-.2-.1-.2l-.4.2a.2.2,0,0,0-.2.2h.1a.1.1,0,0,0,.1.1h.4Zm-.4-4.9h-.3a.1.1,0,0,1,.1.1h.1a.1.1,0,0,0,.1-.1Zm.1,3.4h-.2a.1.1,0,0,0-.1.1h.9c.1,0,.1,0,.1-.1s-.1-.1-.3-.1h-.4Zm.3-8.4h-.3a.1.1,0,0,1,.1.1h.3c.1,0,.1,0,.1-.1h-.2Zm-.3,1.7h.1a.1.1,0,0,0-.1-.1h0Zm.4,4.1h-.3c0,.1,0,.1.1.1h.2Zm.2-2.8h-.1c-.1,0-.2,0-.2-.1h.3Zm.3.7h-.1c0-.1.1-.1.1-.2Zm-.3-5.6h0Zm.2,1.3h0Zm-.2,8h-.1a.1.1,0,0,0-.1.1h.2Zm.6-2.6h0Zm.2,5.2h-.3c-.1,0-.1,0-.1.1h-.1c0,.1,0,.1.1.1h.5A.1.1,0,0,0,141,324.4Zm-.1-4.5h0c-.1,0-.2,0-.2.1h.2Zm.2-5.7h-.2c.1,0,.1,0,.1-.1Zm1.6,10.3c0-.1,0-.1-.1-.1h.1Zm11.7-13.2H156c.2,0,.3,0,.3.1l.4.2h.4l.5.3c.1.1.3.2.4.4s.4.4.4.5l.2.2c.1.1.2.2.2.3l.3.8a1.3,1.3,0,0,1,.2.8v1a.4.4,0,0,1,.1.3.3.3,0,0,1-.1.2v.4h.1a.8.8,0,0,1-.1.3c0,.1-.1.2-.1.3h0a.5.5,0,0,1-.2.4c0,.1-.1.2-.1.4s-.1.3-.3.4l-.3.3a.8.8,0,0,1-.4.4l-.5.3-.5.3a.5.5,0,0,0-.5.3h0a3.9,3.9,0,0,0,.2.6l.6.7a.4.4,0,0,0,.1.3l.2.3c.1,0,.1.1.2.2l.2.2c0,.1.1.1.1.2a.1.1,0,0,1,.1.1v.2h.2l.2.2c.1,0,.1.1.1.2l.6.8.4.5a.4.4,0,0,1,.1.3l.2.3h.1a.3.3,0,0,0,.1.2.5.5,0,0,1-.2.4l-.4.2h-4l-.4-.2-.3-.4-.2-.3a.3.3,0,0,1-.1-.2c0-.1,0-.2-.1-.2a.3.3,0,0,0-.1-.2l-.2-.2v-.3h0l-.3-.3c0-.1-.1-.2-.1-.4l-.3-.4-.4-.6v-.2h-.1a.3.3,0,0,0-.1-.2v-.2c-.1,0-.1-.1-.1-.2l-.2-.2H152l-.3.2c-.1,0-.3-.1-.3-.2h-.3v.2a.4.4,0,0,1,.1.3h.5c.1,0,.1.1.1.2v.2h-.4a.1.1,0,0,0-.1.1h0c.1,0,.1,0,.1.1h.4v.2h0v.7a.9.9,0,0,1,.1.5h0a.4.4,0,0,1,.1.3v.2c-.1.1-.1.1-.1.2v.3a.9.9,0,0,1-.3.7l-.4.2h-3.1l-.3-.2h-.2a.4.4,0,0,0-.1-.3.1.1,0,0,0,.1-.1h0v-1c.1-.1.1-.2.1-.4h0v-.8a.4.4,0,0,1,.1-.3h-.1v-.2h0v-.4a.3.3,0,0,0,.1-.2c-.1-.1-.1-.1-.1-.2v-.5a.4.4,0,0,1,.1-.3c-.1,0-.1-.1-.1-.2v-.4c0-.1,0-.1.1-.2a.4.4,0,0,1-.1-.3v-1.3a.4.4,0,0,0,.1-.3h0c-.1,0-.1-.1-.1-.2v-1.4a.3.3,0,0,0-.1-.2h0v-.3a.3.3,0,0,0,.1-.2c0-.1,0-.1-.1-.2v-.4a.4.4,0,0,0,.1-.3c0-.2,0-.3-.1-.4v-.3c0-.2,0-.3.1-.4h-.1v-.4h.1c0-.1-.1-.1-.1-.2v-.5c0-.1.1-.2.1-.3V312a.4.4,0,0,0,.1-.3.5.5,0,0,1,.5-.3h6Zm-4.5,5.7h-.3a.1.1,0,0,0-.1.1h.4Zm0,1.7h0Zm.3,1.3c0-.1-.1-.2-.3-.2h-.1a.1.1,0,0,0-.1.1.1.1,0,0,1,.1.1h.4Zm0,2.7h-.3C150.1,322.8,150.2,322.8,150.2,322.7Zm.1-7.1H150a.1.1,0,0,1-.1.1h.3a.1.1,0,0,0,.1-.1Zm.1-1.2Zm-.2,6.9h0Zm.9-1h-.2a.2.2,0,0,1-.2.2l-.3.2-.3.2h.8c.1,0,.2,0,.2.1h1.1a.2.2,0,0,0-.2-.2h-.7A.2.2,0,0,1,151.1,320.3Zm-.5,1.8h-.4c0,.1,0,.1.1.1h.3Zm.5-5h-.6c0,.1.1.1.2.1h.4Zm-.1,2.4a.1.1,0,0,1-.1-.1h-.3a.1.1,0,0,1-.1.1c0,.1.1.1.2.1Zm-.2-.8h-.2a.1.1,0,0,0,.1.1C150.8,318.8,150.8,318.8,150.8,318.7Zm.2-3.9h0Zm0,7.5h-.1c.1,0,.1,0,.1-.1Zm.1-8.3h-.2a.1.1,0,0,0-.1.1.1.1,0,0,1,.1.1h.2a.1.1,0,0,0,.1-.1h-.1Zm.1,1.6Zm.8,4.1h-.7v.2h.5a.1.1,0,0,1,.1-.1h0Zm-.1-1.3h-.5a.1.1,0,0,0,.1.1h.2C151.8,318.5,151.9,318.5,151.9,318.4Zm-.1-4.8a.1.1,0,0,0-.1-.1c-.1,0-.2,0-.2.1h.3Zm1.8,1.2h-1.1l-.4.2c-.2.1-.2.2-.2.4h0V317h0v.9c.1,0,.1.1.1.2h0a.2.2,0,0,0,.2.2h1.1l.3-.2h.7c.1-.1.2-.1.2-.2a1,1,0,0,0,.4-.5,1.5,1.5,0,0,0,.1-.7v-.3a.3.3,0,0,0,.1-.2.5.5,0,0,0-.2-.4.8.8,0,0,1-.2-.4l-.3-.2h-.2l-.2-.2Zm-1.2-.7h-.1C152.3,314.1,152.3,314.1,152.4,314.1Zm.4,6.3h-.2c0-.1-.1-.1-.2-.1h0l.2.2.3.2h.4c-.1,0-.1-.1-.2-.2Zm0-.9h-.1c-.1,0-.1,0-.1.1h.2Zm.4,2.5h-.1c0-.1,0-.1-.1-.1h.1A.1.1,0,0,0,153.2,322Zm.3-.7h-.3a.1.1,0,0,0,.1.1C153.4,321.5,153.4,321.4,153.5,321.3Zm.6-1.2h-.9c0,.1,0,.2.2.2h.8c-.1,0-.1-.1,0-.1Zm-.5,2.6h-.3a.1.1,0,0,0-.1.1h.3C153.6,322.8,153.6,322.8,153.6,322.7Zm.5-.2a.1.1,0,0,0-.1-.1h0C154,322.5,154,322.5,154.1,322.5Zm.7.4h-.2l-.2.2h.1c.1,0,.1,0,.1-.1Zm-.2-4.1Zm.4,1.2c-.1,0-.1-.1-.2-.2h-.3a.2.2,0,0,0,.2.2l.2.2Zm.5-5h-.4c0,.1,0,.2.2.2a.1.1,0,0,1,.1-.1Zm.2,3.6c0-.1-.1-.1-.3-.1h-.2c0,.1,0,.2.1.2h.4Zm-.1,5.5h0c-.1,0-.1,0-.1-.1h.1Zm.2-7.3h0Zm.4-.7c-.1,0-.1,0-.1-.1h-.3c0,.1,0,.1.1.1h.3Zm0-2.1h-.1A.1.1,0,0,0,156.2,314Zm11.1-3.2h3.6l.3.2a.5.5,0,0,1,.4.3l.3.4h-.1c.1.1.1.1,0,.2s-.1.2-.1.3-.1.2-.2.4a.8.8,0,0,1-.2.5c-.1.2-.2.3-.2.5s-.2.4-.3.6-.3.3-.5.3H170c-.2,0-.3-.1-.3-.2s-.1,0-.1-.1h-.1l-.5-.2-.5-.2h-1.8l-.4.2-.2.2h0v.2h0v.4a.4.4,0,0,0,.1.3l.3.3.5.2.4.2h.8l.3.2h1.2c.2.1.4.1.6.3a2.4,2.4,0,0,1,.9.6,1.1,1.1,0,0,1,.6.6l.4.5a1.4,1.4,0,0,1,.2.6h0c0,.1,0,.1.1.2h.1c0,.2.1.5.1.8v.7c0,.1,0,.1-.1.2v1.1l-.2.2a.4.4,0,0,1-.1.3v.2c0,.1-.1.1-.2.2s-.1.3-.2.5l-.3.5-.2.2a.2.2,0,0,0-.2.2h-.3c-.2.2-.3.4-.6.5a.7.7,0,0,0-.5.4l-.7.2-.8.2h-3.5c0-.1,0-.1-.1-.1h-1.6l-.3-.2c0-.1-.1-.2-.3-.2l-.3-.2h-.4a1,1,0,0,1-.5-.4.8.8,0,0,1-.2-.5c0-.1.1-.2.1-.3v-.3c0-.1,0-.1.1-.1h0l.3-.4.3-.4c0-.1.1-.2.2-.3v-.2c0-.1.1-.2.1-.3h.2c.1-.1.2-.1.2-.2s.1-.1.2-.2h.7l.2.2c.1.1.1.2.2.2l.4.3.2.2.4.3.4.2h1.8c.1,0,.2,0,.2.1l.5-.3a.8.8,0,0,0,.2-.5c.1,0,.1-.1.2-.2s.1-.1.1-.2h0c-.1,0-.1-.1-.1-.2v-.2a1,1,0,0,0-.5-.6l-.7-.4h0l-.4-.2h-1l-1.1-.4-.9-.5h-.3l-.3-.2-.3-.2a.1.1,0,0,0-.1-.1.8.8,0,0,0-.4-.4,1.4,1.4,0,0,1-.2-.6.2.2,0,0,1-.2-.2.4.4,0,0,1-.1-.3V317h0a1.1,1.1,0,0,0-.1-.5,4.3,4.3,0,0,0-.1-.5c0-.1,0-.2.1-.2v-.2a.1.1,0,0,1-.1-.1v-.3c0-.2.1-.3.1-.5a.9.9,0,0,0,.1-.5.3.3,0,0,0,.1-.2c.1-.2.1-.3.2-.4l.3-.5.3-.4.4-.3a.3.3,0,0,1,.1-.2l.2-.2h.5v-.2h.8l.5-.2h1.8Zm-1.7,5.2h-.9a.1.1,0,0,0-.1.1h1Zm-.7-2h-.2a.1.1,0,0,0-.1.1h.2C164.9,314.1,164.9,314.1,164.9,314Zm.5,2.8h-.5a.2.2,0,0,0,.2.2h.3Zm.2,1.7h-.3c-.1,0-.1,0-.1.1h.4Zm.2-3.6h-.6a.1.1,0,0,0,.1.1h0l.4-.2h.1Zm-.3,9.2h0Zm.8-6.8h0Zm.9-.3h-.3c-.1,0-.1.1-.1.2h.3c0-.1.1-.1.1-.2Zm-.1,8.6h0Zm1.1-8.4Zm.1,8.3h-.2a.1.1,0,0,0,.1.1h.1Zm1.1-4.9h0Zm-.1,1.4a.1.1,0,0,0-.1-.1h-.1a.1.1,0,0,1-.1.1h-.1c0,.1.1.1.2.1h.1c.1,0,.1,0,.1-.1Zm0-2.1h0Zm0,2.9h0Zm-.1,1.5c0-.1,0-.1-.1-.1h.1Zm1.7-1.5c0-.1,0-.1-.1-.1h.1Z" transform="translate(-71 -291.2)"/>
</svg>
