<svg id="Layer_2" data-name="Layer 2" xmlns="http://www.w3.org/2000/svg" viewBox="0 0 128.99 58.97"><title>logo_flovers</title><path d="M6927.81,7204.56a.76.76,0,0,1,.5.4.88.88,0,0,1,.08.65,22.43,22.43,0,0,1-3.3,6.06q-1.09,1.42-2.38,2.84t-2.76,2.76q-1.09,1-2.19,1.88t-2.19,1.59q.46.58.9,1.21a10.89,10.89,0,0,1,.81,1.38,18.66,18.66,0,0,1,1,2.25,20.86,20.86,0,0,1,.73,2.51,21.37,21.37,0,0,1,.58,4.76,10.34,10.34,0,0,1-.63,3.93,2.78,2.78,0,0,1-2.51,1.92q-2.38,0-4-3.34a21.93,21.93,0,0,1-1.17-3q-.54-1.75-1-4-.29-1.25-.48-2.55t-.4-2.59a4.08,4.08,0,0,1-2.17-.63,2.08,2.08,0,0,1-1-1.84,2.36,2.36,0,0,1,.67-1.59,3.61,3.61,0,0,1,2-1l-.29-4.05q-.33-5.35-.33-10.31t.33-9.1a52.48,52.48,0,0,1,1.21-8.23,12.32,12.32,0,0,1,2.42-5.39,3.36,3.36,0,0,1,2.55-1.25h0a3.48,3.48,0,0,1,2.76,1.42,10.34,10.34,0,0,1,1.8,4.76,19.57,19.57,0,0,1-.38,6.56,17.21,17.21,0,0,1-2.09,5.35,21.09,21.09,0,0,1-2.76,3.72q0,3,0,6.33t.27,6.66q.08.79.15,2t.23,2.78l2-1.5q1-.79,2.09-1.75a38.74,38.74,0,0,0,5.12-5.64,17.7,17.7,0,0,0,2.82-5.3.84.84,0,0,1,.42-.48A.88.88,0,0,1,6927.81,7204.56Zm-19.67,16.58a1.68,1.68,0,0,0,.46.19l.58.15-.21-1.75a2,2,0,0,0-.86.44.77.77,0,0,0-.27.52.37.37,0,0,0,.1.27Zm9.15-29a14,14,0,0,0,.33-2.36q.08-1.32,0-2.51a13.84,13.84,0,0,0-.21-2.07,1.78,1.78,0,0,0-.44-1.06q-.27-.19-.63.48a12.64,12.64,0,0,0-.81,2.55,30.23,30.23,0,0,0-.69,3.57q-.27,2-.48,4.36l-.25,3.72a23.57,23.57,0,0,0,1.82-3A15.76,15.76,0,0,0,6917.29,7192.11Zm-1.5,31.95-.27-.54a4.34,4.34,0,0,0-.35-.58q.21,1.46.44,2.92t.52,2.92q.08.42.25,1.15t.38,1.5q.21.77.42,1.44a6.07,6.07,0,0,0,.38,1c.11.21.2.25.27.13a3.45,3.45,0,0,0,.1-1.15,19.49,19.49,0,0,0-.56-4.53A17.72,17.72,0,0,0,6915.78,7224.06Zm32.95-19.8a.94.94,0,0,1,.54.38.73.73,0,0,1,.13.63s-.1.42-.29,1.19-.46,1.77-.79,3-.75,2.65-1.23,4.22-1,3.18-1.61,4.82a46.14,46.14,0,0,1-4.34,9.19q-.46.71-1.07,1.5a11.19,11.19,0,0,1-1.34,1.46,6.56,6.56,0,0,1-1.61,1.09,4.32,4.32,0,0,1-1.88.42,5.33,5.33,0,0,1-4.22-2.3,17.48,17.48,0,0,1-2.63-5.6,45.09,45.09,0,0,1-1.4-7.43,81.71,81.71,0,0,1-.48-9.15,93.24,93.24,0,0,1,.52-10,65.82,65.82,0,0,1,1.48-8.75,23.26,23.26,0,0,1,2.42-6.43q1.63-2.8,3.8-2.8a4.56,4.56,0,0,1,2,.44,4.8,4.8,0,0,1,1.55,1.19,6.6,6.6,0,0,1,1.06,1.73,10.4,10.4,0,0,1,.63,2,16,16,0,0,1-.08,5.62,21.34,21.34,0,0,1-2,5.91,19.06,19.06,0,0,1-1.8,2.92,20.91,20.91,0,0,1-2.21,2.51q-.33.33-.71.65l-.75.65a91.35,91.35,0,0,0,.13,10.73q.17,2,.46,4.24t.73,4.16a25.86,25.86,0,0,0,1,3.51,6.45,6.45,0,0,0,1.32,2.28,1.57,1.57,0,0,0,1.65.46,4.34,4.34,0,0,0,2-2,46.27,46.27,0,0,0,4.13-8.85q.88-2.42,1.59-4.74t1.21-4.16q.5-1.84,1-4.09a.93.93,0,0,1,.38-.54A.73.73,0,0,1,6948.73,7204.26Zm-10.4-18.83a3.94,3.94,0,0,0-.67-2.11q-.42-.35-.92.21a6.62,6.62,0,0,0-1,1.86,30,30,0,0,0-1,2.88q-.46,1.59-.84,3.24t-.58,2.94q-.25,1.59-.44,3.24t-.31,3.36a18.4,18.4,0,0,0,3.84-5.14,19,19,0,0,0,1.84-5.39A14.34,14.34,0,0,0,6938.33,7185.43Zm25.73,20.13a.81.81,0,0,1,0,1.17,3.66,3.66,0,0,1-2.46,1,3.15,3.15,0,0,1-.73-.08l-.77-.21-.77-.35a6,6,0,0,1-.77-.44,8.94,8.94,0,0,1,.25,2.17,8,8,0,0,1-1.42,4.76,6,6,0,0,1-2,1.69,5.24,5.24,0,0,1-2.48.61,7.22,7.22,0,0,1-2.86-.54,6.7,6.7,0,0,1-2.23-1.55,5.72,5.72,0,0,1-1.25-2,7.62,7.62,0,0,1,0-5.09,7,7,0,0,1,1.29-2.21,6.68,6.68,0,0,1,5.26-2.21,5.62,5.62,0,0,1,2.46.52,15.47,15.47,0,0,1,2.26,1.36q.79.63,1.48,1.11a5.2,5.2,0,0,0,1.32.69,2.54,2.54,0,0,0,1.19.13,2,2,0,0,0,1.06-.54.81.81,0,0,1,1.17,0Zm-12,4.18a3.92,3.92,0,0,0,1,2.59,1.93,1.93,0,0,0,1.71.58,2.57,2.57,0,0,0,1.61-1.21,5,5,0,0,0,.71-2.84,7,7,0,0,0-.25-1.9,4.68,4.68,0,0,0-.75-1.57,4.23,4.23,0,0,0-1.13-1,4.53,4.53,0,0,0-1.42,1,5.29,5.29,0,0,0-.94,1.32,5.13,5.13,0,0,0-.48,1.5A5.76,5.76,0,0,0,6952.07,7209.73Zm31.49-5a.7.7,0,0,1-.08.79v0a8.11,8.11,0,0,1-3,3.47,8.53,8.53,0,0,1-4.68.88q-.29,1.34-.71,2.63a21.63,21.63,0,0,1-1,2.46,18.8,18.8,0,0,1-1.32,2.32,8.46,8.46,0,0,1-1.52,1.73,5.89,5.89,0,0,1-4.09,1.75,3.18,3.18,0,0,1-2.42-1.09q-2-2.21-2.34-8.77,0-1.17,0-2.38t.08-2.19q.06-1,.13-1.63t.06-.69a1.56,1.56,0,0,1,1.06-1.19,4,4,0,0,1,2-.29,3.65,3.65,0,0,1,1.87.73,2,2,0,0,1,.75,1.84q0,.79-.08,1.75t0,1.88q0,1,.08,2.21a22.16,22.16,0,0,0,.5,4.2,4,4,0,0,0,.85,1.88.75.75,0,0,0,1.07,0,5.16,5.16,0,0,0,1.19-1.55,20,20,0,0,0,1.19-2.63q.58-1.54,1.09-3.3a6.73,6.73,0,0,1-3.42-2.76,9,9,0,0,1-1.15-2.48,7.22,7.22,0,0,1-.31-2.57,4.11,4.11,0,0,1,1-2.76,3.36,3.36,0,0,1,2.55-1,3,3,0,0,1,.63.08,2.49,2.49,0,0,1,.75.31,3.49,3.49,0,0,1,.75.65,3.9,3.9,0,0,1,.67,1.13,10.74,10.74,0,0,1,.75,4.43,21.28,21.28,0,0,1-.33,3.63,8.16,8.16,0,0,0,2.21,0,4,4,0,0,0,1.57-.61,4.48,4.48,0,0,0,1.13-1.11,10.77,10.77,0,0,0,.94-1.63l.17-.31a.57.57,0,0,1,.33-.23.76.76,0,0,1,1.09.42Zm-9.06,3.17q.13-.83.21-1.67t.08-1.63a9.07,9.07,0,0,0-.63-3.76q-.33-.88-.71-1a.87.87,0,0,0-1.32.58,4,4,0,0,0-.21,1.48,11.66,11.66,0,0,0,.21,1.86,9.78,9.78,0,0,0,.54,1.88,7.41,7.41,0,0,0,.81,1.52A1.76,1.76,0,0,0,6974.5,7207.94Zm23.18-3.42a.75.75,0,0,1,.42.48.9.9,0,0,1-.08.65q-1.21,2.38-2.53,4.68a40.91,40.91,0,0,1-2.65,4.09q-.59.71-1.21,1.42a9.16,9.16,0,0,1-1.38,1.27,8.09,8.09,0,0,1-1.61.94,4.57,4.57,0,0,1-1.86.38,3.61,3.61,0,0,1-2.63-1.19,9.23,9.23,0,0,1-2-3.45,19.93,19.93,0,0,1-1-6,15.65,15.65,0,0,1,1-6.1,10.11,10.11,0,0,1,.92-1.69,5.2,5.2,0,0,1,1.17-1.23,5.91,5.91,0,0,1,2.76-1.25,4.36,4.36,0,0,1,2.59.33,3.31,3.31,0,0,1,1.32,1.15,3,3,0,0,1,.48,1.69q0,2.42-4.55,4.43,0,1,.13,2.4t.23,2.78a18.56,18.56,0,0,0,.44,2.55,4.1,4.1,0,0,0,.79,1.73,1.15,1.15,0,0,0,1.23.38,4.19,4.19,0,0,0,1.82-1.57,40.7,40.7,0,0,0,2.57-4q1.27-2.23,2.48-4.53a.8.8,0,0,1,1.13-.38Zm-10.44-1.38a7.78,7.78,0,0,0,1.34-.81,4.77,4.77,0,0,0,.75-.71,2,2,0,0,0,.33-.54,1.14,1.14,0,0,0,.08-.36,1.26,1.26,0,0,0-.06-.56s-.17,0-.4.06A4.13,4.13,0,0,0,6987.24,7203.14Zm29.9,1.17a.76.76,0,0,1,.46.44.87.87,0,0,1,0,.65q-.67,1.71-1.23,3.09t-1.34,3.11q-.77,1.73-1.69,3.49-.5,1-1.38,2.61a28.55,28.55,0,0,1-2,3.15,14.21,14.21,0,0,1-2.48,2.65,4.37,4.37,0,0,1-2.78,1.11,2.9,2.9,0,0,1-1.27-.29,2.43,2.43,0,0,1-1-1q-1.67-2.84,1-12.45.58-2,1.19-3.88t1.06-3.09a26.42,26.42,0,0,1-3,.9,15.35,15.35,0,0,1-3.7.44,5.48,5.48,0,0,1-4.59-2.17,7.23,7.23,0,0,1-1.38-4.47,8.33,8.33,0,0,1,.25-2.07,6.29,6.29,0,0,1,.71-1.73,3.48,3.48,0,0,1,3-1.92,3.29,3.29,0,0,1,1.9.48,4.31,4.31,0,0,1,1,.94q1.34,2,.21,6.43-.21.84-.42,1.57t-.42,1.27a14.86,14.86,0,0,0,2.76-.33,20.72,20.72,0,0,0,2.36-.65q1-.35,2.32-.94a2.91,2.91,0,0,1,.61-.23,8.5,8.5,0,0,1,1.15-.25,11.21,11.21,0,0,1,1.38-.13,4.56,4.56,0,0,1,1.27.13,1.48,1.48,0,0,1,.84.5,1.1,1.1,0,0,1,.06,1q-.5,1.38-.9,2.55l-.9,2.67q-.5,1.5-1,3.17-1.09,3.8-1.5,6.1a5.86,5.86,0,0,0-.13,2.84q.29.54,1.32-.81a39.55,39.55,0,0,0,2.86-4.87q.92-1.75,1.67-3.45t1.32-3q.56-1.36,1.23-3a.83.83,0,0,1,.44-.48A.81.81,0,0,1,7017.14,7204.3Zm-18.58-4a13.5,13.5,0,0,0,.27-1.54,11,11,0,0,0,.08-2.13,3.75,3.75,0,0,0-.48-1.73,1.12,1.12,0,0,0-1.42-.4,1.43,1.43,0,0,0-.94.88,5.28,5.28,0,0,0-.4,1.67,9.33,9.33,0,0,0,.06,2,13.42,13.42,0,0,0,.42,2,6.72,6.72,0,0,0,.65,1.55q.38.63.79.67.21-.5.46-1.29T6998.55,7200.34Zm36.58,4.93a9,9,0,0,1-2,3.78,27.16,27.16,0,0,1-3.26,3,10.73,10.73,0,0,1,1.94,2.9,9.74,9.74,0,0,1,.77,3.86,8.78,8.78,0,0,1-1.25,4.68,8.2,8.2,0,0,1-3,3,7.82,7.82,0,0,1-3.88,1.09,4.85,4.85,0,0,1-3.42-1.27,4.51,4.51,0,0,1-1.38-3.49,9.75,9.75,0,0,1,2.42-6.35,10.73,10.73,0,0,1,1-1.11q.54-.52,1.13-1l-1.15-.94-1.27-1q-1.46-1.13-3-2.42a17.37,17.37,0,0,1-2.78-3,16,16,0,0,1-2.07-3.9,14.67,14.67,0,0,1-.81-5.12,7.11,7.11,0,0,1,.75-3.3,5.72,5.72,0,0,1,.92-1.34,6.6,6.6,0,0,1,1.17-1,4.68,4.68,0,0,1,2.46-.71,4.73,4.73,0,0,1,2.59.48,3.63,3.63,0,0,1,1.5,1.57,6.22,6.22,0,0,1,.61,2.3,11.62,11.62,0,0,1-.1,2.67,18.21,18.21,0,0,1-2,5.8,13.66,13.66,0,0,0,2.21,2.28q1.25,1,2.59,2l1.44,1.09q.73.54,1.4,1.13a26.94,26.94,0,0,0,3-2.76,7.6,7.6,0,0,0,1.84-3.3.76.76,0,0,1,.4-.5.88.88,0,0,1,.65-.08.77.77,0,0,1,.5.38A.82.82,0,0,1,7035.14,7205.27Zm-13.82-6.89a10.68,10.68,0,0,0,.17-2.23,4.74,4.74,0,0,0-.33-1.69,2.15,2.15,0,0,0-.48-.61q-.27-.23-.69.06l-.27.29a2.08,2.08,0,0,0-.35.67,7,7,0,0,0-.29,1.21,13.39,13.39,0,0,0,.15,4.51,11.33,11.33,0,0,0,.73,2.17,19.31,19.31,0,0,0,.86-2.19A14.34,14.34,0,0,0,7021.31,7198.37Zm4,17.21a15.88,15.88,0,0,0-2.88,3.19,7.1,7.1,0,0,0-1.17,4.07,3.18,3.18,0,0,0,.4,1.88,1,1,0,0,0,1,.4,2.75,2.75,0,0,0,1.32-.75,8.54,8.54,0,0,0,1.32-1.55,9.34,9.34,0,0,0,1-2,5.81,5.81,0,0,0,.4-2,4.25,4.25,0,0,0-.36-1.75A5.46,5.46,0,0,0,7025.32,7215.58Z" transform="translate(-6906.18 -7179.71)"/></svg>