<svg id="Layer_1" data-name="Layer 1" xmlns="http://www.w3.org/2000/svg" viewBox="0 0 96.82 96.82">
  <defs>
    <style>
      .cls-1{fill:#8199a3;}.cls-2{fill:#efebe3;}
    </style>
  </defs>
  <path class="cls-1" d="M48.41 96.82a48.41 48.41 0 1 1 48.43-48.39 48.46 48.46 0 0 1-48.43 48.39zm0-94.82a46.41 46.41 0 1 0 46.43 46.43A46.46 46.46 0 0 0 48.41 2z"/>
  <circle class="cls-1" cx="48.41" cy="48.41" r="40.68"/>
  <path class="cls-2" d="M41.84 75.18h10.44V49.03h7.29l.78-8.76h-8.06v-5c0-2.06.41-2.88 2.41-2.88h5.65V23.3h-7.23c-7.77 0-11.27 3.42-11.27 10v7h-5.43v8.86h5.42z"/>
</svg>
