<svg id="lineDrawing" xmlns="http://www.w3.org/2000/svg" viewBox="0 0 252.26 235.18"><defs><style>.cls-1{fill:none;stroke:#009245;stroke-miterlimit:10;stroke-width:4px;}</style></defs><title>flower</title><path id="line" class="cls-1" d="M7270.25,7131.78a18.84,18.84,0,0,0,11.06-31.19c-4.28-4.77-10.71-7.05-17-8.07-6.5-1-13.36-.91-19.39,1.73s-11.06,8.1-12,14.62c-1.13,8.07,4.24,15.94,11.18,20.23s15.2,5.74,23.23,7.11l22.77,3.88c9.74,1.66,20.92,3,28.42-3.48a7,7,0,0,0,2.76-4.57c.15-2.26-1.45-4.24-3.11-5.78a32.13,32.13,0,0,0-21.33-8.43,46.5,46.5,0,0,0,24.84-32c.66-3.21.94-6.69-.54-9.62-2.68-5.32-9.73-6.46-15.69-6.29-5.59.17-11.31.95-16.22,3.63s-8.9,7.54-9.3,13.12c-.59-7.4-1.32-14.9-4-21.8s-7.78-13.22-14.73-15.81-15.83-.55-19.71,5.78-2,14.31-2.64,21.65a55.47,55.47,0,0,0-34.94-11c-7.13.24-14.9,2.34-18.85,8.28-4.42,6.65-2.36,16,2.68,22.21s12.39,10,19.52,13.55c-9.51,5.58-10.88,18.61-10.47,29.63a11,11,0,0,0,1.05,5.15c1.67,2.9,5.48,3.68,8.82,3.78a43.91,43.91,0,0,0,28.11-9.26,38.26,38.26,0,0,0,7.93,28.12c3.62,4.55,8.83,8.44,14.65,8.28s10.93-4.45,13.55-9.65,3.16-11.19,3.25-17a218,218,0,0,1,3.28,99c-1.21,6.08-2.75,12.26-6.16,17.44s-9.07,9.26-15.27,9.27c-7.74,0-14.11-6-18.67-12.27-1.7-2.33-3.61-5-6.46-5.37a9.37,9.37,0,0,0-4.41.77c-6.65,2.4-12.86,6-19.7,7.81s-14.85,1.38-20-3.45c-3.59-3.36-6.17-8.9-11.09-9.07-4.12-.14-7.07,3.67-10,6.61a31.46,31.46,0,0,1-21,9.26c-11,.41-22.41-4.9-32.58-.76-5.22,2.13-9.24,6.5-14.32,8.94-7.78,3.74-16.93,2.52-25.46,1.23" transform="translate(-7071.94 -7046.03)"/></svg>