<svg id="Layer_2" data-name="Layer 2" xmlns="http://www.w3.org/2000/svg" viewBox="0 0 96.82 96.82">
  <defs>
    <style>
      .cls-1{fill:#8199a3;}.cls-2{fill:#efebe3;}
    </style>
  </defs>
  <path class="cls-1" d="M48.4 96.82a48.41 48.41 0 1 1 48.41-48.41A48.46 48.46 0 0 1 48.4 96.82zM48.4 2a46.41 46.41 0 1 0 46.41 46.41A46.46 46.46 0 0 0 48.4 2z"/>
  <circle class="cls-1" cx="48.41" cy="48.41" r="40.68"/>
  <path class="cls-2" d="M48.45 29.98c6.28 0 7 0 9.5.14a13 13 0 0 1 4.37.81 7.79 7.79 0 0 1 4.46 4.46 13 13 0 0 1 .81 4.37c.11 2.48.14 3.22.14 9.5s0 7-.14 9.5a13 13 0 0 1-.81 4.37 7.79 7.79 0 0 1-4.46 4.46 13 13 0 0 1-4.37.81c-2.48.11-3.22.14-9.5.14s-7 0-9.5-.14a13 13 0 0 1-4.37-.81 7.79 7.79 0 0 1-4.46-4.46 13 13 0 0 1-.81-4.37c-.11-2.48-.14-3.22-.14-9.5s0-7 .14-9.5a13 13 0 0 1 .81-4.37 7.79 7.79 0 0 1 4.46-4.46 13 13 0 0 1 4.37-.81c2.48-.11 3.22-.14 9.5-.14m0-4.24c-6.39 0-7.19 0-9.7.14a17.27 17.27 0 0 0-5.71 1.09 12 12 0 0 0-6.88 6.88 17.26 17.26 0 0 0-1.09 5.71c-.11 2.51-.14 3.31-.14 9.7s0 7.19.14 9.7a17.26 17.26 0 0 0 1.09 5.71 12 12 0 0 0 6.88 6.88 17.27 17.27 0 0 0 5.71 1.09c2.51.11 3.31.14 9.7.14s7.19 0 9.7-.14a17.27 17.27 0 0 0 5.71-1.09 12 12 0 0 0 6.88-6.88 17.26 17.26 0 0 0 1.09-5.71c.11-2.51.14-3.31.14-9.7s0-7.19-.14-9.7a17.26 17.26 0 0 0-1.09-5.71 12 12 0 0 0-6.88-6.88 17.27 17.27 0 0 0-5.71-1.09c-2.51-.11-3.31-.14-9.7-.14"/>
  <path class="cls-2" d="M48.45 37.18a12.08 12.08 0 1 0 12.08 12.08 12.08 12.08 0 0 0-12.08-12.08m0 19.92a7.84 7.84 0 1 1 7.84-7.84 7.84 7.84 0 0 1-7.84 7.84M63.82 36.71A2.82 2.82 0 1 1 61 33.89a2.82 2.82 0 0 1 2.82 2.82"/>
</svg>
