<svg id="Layer_3" data-name="Layer 3" xmlns="http://www.w3.org/2000/svg" viewBox="0 0 96.82 96.82">
  <defs>
    <style>
      .cls-1{fill:#8199a3;}.cls-2{fill:#efebe3;}
    </style>
  </defs>
  <path class="cls-1" d="M48.41 96.82a48.41 48.41 0 1 1 48.41-48.41 48.46 48.46 0 0 1-48.41 48.41zm0-94.82a46.41 46.41 0 1 0 46.41 46.41A46.46 46.46 0 0 0 48.41 2z"/>
  <circle class="cls-1" cx="48.41" cy="48.41" r="40.68"/>
  <path class="cls-2" d="M35.96 55a1 1 0 0 0 1.47-.73c.13-.51.45-1.81.6-2.35a1.41 1.41 0 0 0-.42-1.63 8.45 8.45 0 0 1-1.93-5.74c0-7.39 5.53-14 14.41-14 7.86 0 12.18 4.8 12.18 11.22 0 8.44-3.73 15.56-9.28 15.56a4.53 4.53 0 0 1-4.62-5.64c.88-3.71 2.58-7.71 2.58-10.38 0-2.4-1.29-4.39-3.95-4.39-3.13 0-5.64 3.24-5.64 7.57a11.25 11.25 0 0 0 .93 4.63l-3.76 15.95c-1.12 4.73-.17 10.53-.09 11.12a.39.39 0 0 0 .7.17c.29-.38 4-5 5.28-9.58.36-1.3 2.06-8 2.06-8 1 1.94 4 3.65 7.15 3.65 9.41 0 15.79-8.58 15.79-20.05 0-8.68-7.35-16.76-18.53-16.76-13.9 0-20.91 10-20.91 18.28-.01 4.96 1.9 9.43 5.98 11.1z"/>
</svg>
