<svg id="Layer_2" data-name="Layer 2" xmlns="http://www.w3.org/2000/svg" viewBox="0 0 40 48.74">
  <defs>
    <style>
      .cls-1{fill:#555f60;}.cls-2{fill:#8199a3;}
    </style>
  </defs>
  <path class="cls-1" d="M20.77 19.11l-.61.8c-.25.35-.54.79-.87 1.3s-.65 1.1-1 1.75a71 71 0 0 0-4.42 9.93 30.1 30.1 0 0 0-1.36 5.75 15.32 15.32 0 0 0 .16 5.32 10.5 10.5 0 0 0 .69 2.1 9.39 9.39 0 0 0 .86 1.51l.38.52.32.36.26.3 1.53-1.51-.21-.23-.25-.27-.3-.4a8.12 8.12 0 0 1-.69-1.16 8.49 8.49 0 0 1-.6-1.68 14.43 14.43 0 0 1-.3-4.66 29.75 29.75 0 0 1 1-5.48 70.71 70.71 0 0 1 3.75-10c.6-1.33 1.06-2.46 1.38-3.26s.49-1.27.49-1.27z"/>
  <path class="cls-2" d="M34.71 11.51a5.48 5.48 0 0 0-7.58-7.32c-3.52 2-3.87 8.61-5.08 12.09-.24.68-.74 1.94-1.52 1.73s-.59-1.55-.45-2.26c.69-3.62 3.67-9.49 1.64-13A34.82 34.82 0 0 1 6.18 5.39a5.48 5.48 0 0 0-2 7.49c2 3.52 8.61 3.87 12.09 5.08.68.23 1.94.74 1.73 1.52s-1.55.58-2.26.45c-3.62-.69-9.49-3.67-13-1.65a34.85 34.85 0 0 1 2.64 15.54 5.48 5.48 0 0 0 7.49 2c3.52-2 3.87-8.61 5.08-12.09.24-.68.74-1.94 1.52-1.73s.58 1.55.45 2.26c-.69 3.62-3.67 9.49-1.64 13a34.81 34.81 0 0 1 15.54-2.64 5.48 5.48 0 0 0 2-7.49c-2-3.52-8.61-3.87-12.09-5.08-.68-.24-1.94-.74-1.73-1.52s1.55-.58 2.25-.45c3.62.69 9.49 3.68 13 1.64A5.48 5.48 0 0 0 34.7 11.5z"/>
  <path class="cls-1" d="M34.62 14.47l-.5-.22a19.12 19.12 0 0 0-1.91-.63c-.33-.09-.58-.15-.73-.18l2.08-1.25-2.12 1.18c0-.15.12-.4.21-.73a19 19 0 0 0 .41-2l.06-.54c0-.18.05-.35 0-.53v-.94l-.07-.91v.91c0 .27 0 .59-.05.93 0 .17 0 .34-.07.52l-.08.54a19.24 19.24 0 0 1-.47 1.95c-.15.52-.28.86-.28.86l-1.93 1.09c0-.15.11-.38.19-.67a19.24 19.24 0 0 0 .41-2l.06-.54v-.53-.94c0-.55-.07-.91-.07-.91v.91c0 .27 0 .59-.05.93 0 .17 0 .34-.06.52l-.08.54a19 19 0 0 1-.47 1.95c-.13.46-.24.76-.27.83l-1.92 1.06c0-.15.11-.36.17-.61a19.31 19.31 0 0 0 .41-2l.06-.54v-.53-.94l-.07-.91v.91c0 .27 0 .59-.05.93a5.26 5.26 0 0 1-.07.52l-.08.54a19.22 19.22 0 0 1-.47 1.95c-.11.37-.2.64-.25.77l-1.92 1.07c0-.15.1-.33.15-.55a19.06 19.06 0 0 0 .41-2l.06-.54v-.53-.94l-.07-.91v.91c0 .27 0 .59-.05.93 0 .17 0 .34-.07.52l-.08.54a19.42 19.42 0 0 1-.47 1.95c-.09.32-.17.56-.23.71l-2.72 1.51a1.76 1.76 0 0 1-3.06-.82l-1.6-2.67c0-.15.08-.4.16-.73a19.31 19.31 0 0 1 .57-1.92l.2-.5c.07-.16.12-.34.2-.49.16-.3.29-.6.42-.83l.49-.77-.52.75c-.14.23-.28.52-.45.82-.09.15-.14.32-.22.48l-.22.5a19.11 19.11 0 0 0-.63 1.91c-.06.22-.11.4-.14.55l-1.13-1.89c0-.14.08-.42.17-.79a19.22 19.22 0 0 1 .57-1.92l.2-.5c.07-.16.12-.34.2-.48.16-.3.29-.6.42-.83l.49-.77-.52.75c-.14.23-.28.52-.45.82-.09.15-.15.32-.22.48l-.22.5a19.17 19.17 0 0 0-.63 1.91c-.07.25-.12.46-.16.61l-1.13-1.88c0-.07.07-.39.18-.86a19.17 19.17 0 0 1 .57-1.92l.2-.5c.07-.16.12-.34.2-.48.15-.3.29-.6.42-.83l.49-.77-.52.75c-.14.23-.28.52-.45.82-.09.15-.15.32-.22.48l-.22.5a19.09 19.09 0 0 0-.63 1.91c-.08.28-.13.51-.17.67l-1.15-1.92a7.42 7.42 0 0 0 .22-.88 19 19 0 0 1 .57-1.92l.2-.51c.07-.16.12-.33.2-.48.15-.3.29-.6.42-.83l.49-.77-.52.75c-.14.23-.28.52-.45.82-.09.15-.14.32-.22.48l-.22.5a19.41 19.41 0 0 0-.63 1.91c-.09.33-.15.58-.18.73l-1.25-2.08 1.18 2.12-.73-.21a19.12 19.12 0 0 0-2-.41l-.54-.06c-.18 0-.35-.05-.53 0h-.94l-.91.07h.91c.27 0 .59 0 .93.05.17 0 .34 0 .52.07l.54.08a19 19 0 0 1 1.95.47c.52.15.86.28.86.28l1.09 1.93-.67-.19a19.43 19.43 0 0 0-2-.41l-.54-.06c-.18 0-.35-.05-.53 0h-.94l-.91.07h.91c.27 0 .59 0 .93.05.17 0 .34 0 .52.07l.54.08a18.7 18.7 0 0 1 1.94.47c.46.13.76.24.83.27l1.07 1.92-.61-.17a19.29 19.29 0 0 0-2-.41l-.54-.06c-.18 0-.35-.05-.53 0h-.94l-.91.07h.91c.27 0 .59 0 .93.05.17 0 .34 0 .52.06l.54.08a18.88 18.88 0 0 1 1.95.47c.37.11.64.2.77.25l1.07 1.93-.55-.15a19.05 19.05 0 0 0-2-.41l-.54-.06c-.18 0-.35-.05-.53 0h-.94l-.91.07h.91c.27 0 .59 0 .93.05a5.24 5.24 0 0 1 .52.07l.54.08a19.08 19.08 0 0 1 1.95.47l.71.23 1.51 2.72a1.76 1.76 0 0 1-.82 3.06l-2.67 1.6-.73-.16a19 19 0 0 1-1.92-.57l-.5-.2c-.16-.07-.34-.12-.49-.2-.3-.15-.6-.29-.83-.42l-.77-.49.75.52c.23.14.52.28.82.45.15.09.32.14.48.22l.5.22a19.31 19.31 0 0 0 1.91.63l.55.14-1.89 1.13c-.14 0-.42-.08-.79-.17a19.16 19.16 0 0 1-1.92-.57l-.5-.2c-.16-.07-.34-.12-.49-.2-.3-.15-.6-.29-.83-.42l-.77-.49.75.52c.23.14.52.28.82.45.15.09.32.14.48.22l.5.22a19.17 19.17 0 0 0 1.91.63l.61.15-1.88 1.13c-.07 0-.39-.07-.86-.18a18.88 18.88 0 0 1-1.92-.57l-.5-.2c-.16-.07-.34-.12-.48-.2-.3-.15-.6-.29-.83-.42l-.77-.49.75.52c.23.14.52.28.82.45.15.09.32.15.48.22l.5.22a19.61 19.61 0 0 0 1.91.63l.67.17-1.92 1.15a7.74 7.74 0 0 0-.88-.22A19.26 19.26 0 0 1 5.26 26l-.5-.2c-.17-.07-.34-.12-.49-.2-.3-.15-.6-.29-.83-.42l-.77-.49.75.52c.23.14.52.28.82.45.15.09.32.15.48.22l.5.22a19 19 0 0 0 1.91.63l.73.18-2.08 1.25 2.12-1.18c0 .15-.12.4-.21.73a19.07 19.07 0 0 0-.41 2l-.06.54c0 .18-.05.35 0 .53v.94l.07.91v-.91c0-.27 0-.59.05-.93 0-.17 0-.34.06-.52l.08-.54a19.18 19.18 0 0 1 .47-1.95c.15-.52.28-.86.28-.86l1.93-1.09c0 .15-.12.38-.19.67a19.57 19.57 0 0 0-.41 2l-.06.54a5.28 5.28 0 0 0 0 .53v.94l.07.91v-.91c0-.27 0-.59.05-.93 0-.17 0-.34.07-.52l.08-.54a19 19 0 0 1 .47-1.95c.13-.46.24-.76.27-.83l1.92-1.06c0 .15-.11.36-.17.61a19.52 19.52 0 0 0-.41 2l-.06.54c0 .18-.05.35 0 .53v.94l.07.91v-.91c0-.27 0-.59.05-.93 0-.17 0-.34.07-.52l.08-.54a19.16 19.16 0 0 1 .47-1.95c.11-.37.2-.64.25-.77l1.92-1.07c0 .15-.1.33-.15.55a19.22 19.22 0 0 0-.41 2l-.06.54v1.47l.07.91v-.91c0-.27 0-.59.05-.93 0-.17 0-.34.07-.52l.08-.54a19 19 0 0 1 .47-1.95c.09-.32.18-.56.23-.71l2.72-1.51a1.76 1.76 0 0 1 3.06.82l1.6 2.67c0 .15-.08.4-.16.73a19 19 0 0 1-.57 1.92l-.2.51a5.09 5.09 0 0 1-.21.48c-.15.3-.29.6-.42.83l-.49.77.52-.75c.14-.23.28-.52.45-.82.09-.15.14-.32.22-.48l.22-.5a19.4 19.4 0 0 0 .63-1.91c.06-.22.11-.4.14-.55l1.13 1.89c0 .14-.08.42-.17.79a18.94 18.94 0 0 1-.57 1.92l-.2.5c-.07.16-.12.33-.21.48-.15.3-.29.6-.42.83l-.49.77.52-.75c.14-.23.28-.52.45-.82.09-.15.14-.32.22-.48l.22-.5a19.68 19.68 0 0 0 .63-1.91c.07-.25.12-.46.16-.61l1.13 1.88c0 .07-.07.39-.18.86a18.92 18.92 0 0 1-.57 1.92l-.2.5c-.07.16-.12.34-.21.48-.15.3-.29.6-.42.83l-.49.77.52-.75c.14-.23.28-.52.45-.82.09-.15.15-.32.22-.48l.22-.5a19.1 19.1 0 0 0 .63-1.91c.08-.28.13-.51.17-.67l1.15 1.92a7.54 7.54 0 0 0-.22.88 19 19 0 0 1-.57 1.92l-.2.5a5.26 5.26 0 0 1-.21.49c-.15.3-.29.6-.42.83l-.49.77.52-.75c.14-.23.28-.52.45-.82.09-.15.14-.32.22-.48l.22-.5a19.37 19.37 0 0 0 .63-1.91c.09-.33.15-.58.18-.73l1.25 2.08-1.18-2.12.73.21a19.17 19.17 0 0 0 2 .41l.54.06c.18 0 .35.05.53 0h.94l.91-.07h-.91c-.27 0-.59 0-.93-.05-.17 0-.34 0-.52-.07l-.54-.08a19 19 0 0 1-1.94-.47c-.52-.15-.86-.28-.86-.28l-1.09-1.93.67.19a19.24 19.24 0 0 0 2 .41l.54.06c.18 0 .35.05.53 0h.94l.91-.07h-.91c-.27 0-.59 0-.93-.05-.17 0-.34 0-.52-.06l-.54-.08a19 19 0 0 1-1.95-.47c-.46-.13-.76-.24-.83-.27l-1.07-1.92.61.17a19.3 19.3 0 0 0 2 .41l.54.06a5.24 5.24 0 0 0 .53 0h.94l.91-.07h-.91c-.27 0-.59 0-.93-.05-.17 0-.34 0-.52-.07l-.54-.08a19.27 19.27 0 0 1-1.95-.47c-.37-.11-.64-.2-.77-.25l-1.07-1.92.55.15a19.11 19.11 0 0 0 2 .41l.54.06c.18 0 .35.05.53 0h.94l.91-.07h-.91c-.27 0-.59 0-.93-.05-.17 0-.34 0-.52-.06l-.54-.08a18.82 18.82 0 0 1-1.95-.47l-.71-.23-1.51-2.72a1.76 1.76 0 0 1 .82-3.06l2.67-1.6.73.16a19.25 19.25 0 0 1 1.92.57l.5.2c.17.07.33.12.49.2.3.15.6.29.83.42l.77.49-.75-.52c-.23-.14-.52-.28-.82-.45-.15-.09-.32-.14-.48-.22l-.5-.22a18.81 18.81 0 0 0-1.91-.63l-.55-.14 1.89-1.13c.14 0 .42.08.79.17a19 19 0 0 1 1.92.57l.5.2c.16.07.34.12.49.2.3.15.6.29.83.42l.77.49-.75-.52c-.23-.14-.52-.28-.82-.45-.15-.09-.32-.15-.48-.22l-.5-.22a19.34 19.34 0 0 0-1.91-.63l-.61-.15 1.88-1.13c.07 0 .39.07.86.18a19.12 19.12 0 0 1 1.92.57l.5.2c.16.07.34.12.48.21.3.15.6.29.83.42l.77.49-.75-.52c-.23-.14-.52-.28-.82-.45-.15-.09-.32-.14-.48-.22l-.5-.22a19.14 19.14 0 0 0-1.91-.63l-.67-.17 1.92-1.15a7.49 7.49 0 0 0 .88.22 18.92 18.92 0 0 1 1.92.57l.5.2c.16.07.33.12.49.2.3.15.6.29.83.42l.77.49-.75-.52c-.23-.14-.52-.28-.82-.45-.13-.12-.3-.17-.44-.25z"/>
</svg>
